<svg width="213" height="261" viewBox="0 0 213 261" fill="none" xmlns="http://www.w3.org/2000/svg">
  <path d="M213 0H0v261h213V0z" fill="#F4F9FD" />
  <path d="M58.773 127v-11.375h3.985c1.38 0 2.427.266 3.14.797.714.526 1.07 1.299 1.07 2.32a2.59 2.59 0 0 1-.429 1.477 2.483 2.483 0 0 1-1.195.929c.583.146 1.041.441 1.375.883.338.443.508.985.508 1.625 0 1.094-.35 1.922-1.047 2.485-.698.562-1.693.849-2.985.859h-4.422zm2.344-4.953v3.07h2.008c.552 0 .982-.13 1.29-.39.312-.266.468-.631.468-1.094 0-1.042-.54-1.571-1.617-1.586h-2.149zm0-1.656h1.735c1.182-.021 1.773-.493 1.773-1.414 0-.516-.151-.886-.453-1.11-.297-.229-.768-.344-1.414-.344h-1.64v2.868zm17.219 1.179c0 1.12-.198 2.102-.594 2.946-.396.843-.963 1.494-1.703 1.953-.734.458-1.578.687-2.531.687-.943 0-1.784-.226-2.524-.679-.74-.454-1.312-1.099-1.718-1.938-.407-.844-.612-1.812-.618-2.906v-.563c0-1.119.201-2.104.602-2.953.406-.854.977-1.508 1.71-1.961.74-.458 1.584-.687 2.532-.687s1.79.229 2.524.687c.74.453 1.31 1.107 1.71 1.961.407.849.61 1.831.61 2.945v.508zm-2.375-.515c0-1.193-.214-2.099-.64-2.719-.428-.62-1.037-.93-1.829-.93-.786 0-1.393.308-1.82.922-.427.61-.643 1.505-.649 2.688v.554c0 1.162.214 2.063.641 2.703.427.641 1.042.961 1.844.961.786 0 1.39-.307 1.812-.922.422-.619.636-1.52.64-2.703v-.554zm13.422.515c0 1.12-.198 2.102-.594 2.946-.396.843-.963 1.494-1.703 1.953-.734.458-1.578.687-2.531.687-.943 0-1.784-.226-2.524-.679-.74-.454-1.312-1.099-1.719-1.938-.406-.844-.611-1.812-.617-2.906v-.563c0-1.119.2-2.104.602-2.953.406-.854.976-1.508 1.71-1.961.74-.458 1.584-.687 2.532-.687s1.79.229 2.523.687c.74.453 1.31 1.107 1.711 1.961.407.849.61 1.831.61 2.945v.508zm-2.375-.515c0-1.193-.214-2.099-.64-2.719-.428-.62-1.037-.93-1.829-.93-.786 0-1.393.308-1.82.922-.427.61-.643 1.505-.649 2.688v.554c0 1.162.214 2.063.64 2.703.428.641 1.043.961 1.845.961.786 0 1.39-.307 1.812-.922.422-.619.636-1.52.64-2.703v-.554zm7.64 1.383l-1.218 1.312V127h-2.344v-11.375h2.344v5.156l1.03-1.414 2.9-3.742h2.882l-4.039 5.055 4.156 6.32H97.57l-2.922-4.562zm19.508.773c-.088 1.224-.541 2.187-1.359 2.891-.813.703-1.886 1.054-3.219 1.054-1.458 0-2.607-.489-3.445-1.468-.834-.985-1.25-2.334-1.25-4.047v-.696c0-1.093.193-2.057.578-2.89.385-.834.935-1.472 1.648-1.914.719-.448 1.552-.672 2.5-.672 1.313 0 2.37.351 3.172 1.054.802.704 1.266 1.691 1.391 2.961h-2.344c-.057-.734-.263-1.265-.617-1.593-.349-.334-.883-.5-1.602-.5-.781 0-1.367.281-1.757.843-.386.558-.584 1.425-.594 2.602v.859c0 1.229.185 2.128.554 2.696.376.567.964.851 1.766.851.724 0 1.263-.164 1.617-.492.36-.333.565-.846.617-1.539h2.344zm10.883-1.641c0 1.12-.198 2.102-.594 2.946-.396.843-.963 1.494-1.703 1.953-.734.458-1.578.687-2.531.687-.943 0-1.784-.226-2.523-.679-.74-.454-1.313-1.099-1.719-1.938-.407-.844-.612-1.812-.617-2.906v-.563c0-1.119.2-2.104.601-2.953.406-.854.977-1.508 1.711-1.961.74-.458 1.583-.687 2.531-.687.948 0 1.789.229 2.524.687.739.453 1.31 1.107 1.711 1.961.406.849.609 1.831.609 2.945v.508zm-2.375-.515c0-1.193-.213-2.099-.641-2.719-.427-.62-1.036-.93-1.828-.93-.786 0-1.393.308-1.82.922-.427.61-.643 1.505-.648 2.688v.554c0 1.162.213 2.063.64 2.703.427.641 1.042.961 1.844.961.786 0 1.391-.307 1.812-.922.422-.619.636-1.52.641-2.703v-.554zm8.109 3.125l2.579-8.555h2.609L132 127h-2.445l-3.946-11.375h2.602l2.562 8.555zm13.11-2.11h-4.5v3.047h5.281V127h-7.625v-11.375h7.609v1.898h-5.265v2.711h4.5v1.836zm6.367.766h-1.867V127h-2.344v-11.375h4.227c1.343 0 2.38.299 3.109.898.729.599 1.094 1.446 1.094 2.539 0 .777-.17 1.425-.508 1.946-.333.515-.841.927-1.523 1.234l2.46 4.649V127h-2.515l-2.133-4.164zm-1.867-1.898h1.89c.589 0 1.045-.149 1.368-.446.323-.302.484-.716.484-1.242 0-.536-.154-.958-.461-1.266-.302-.307-.768-.461-1.398-.461h-1.883v3.415zm-84.719 13.687v7.492c0 1.245-.39 2.229-1.172 2.953-.776.724-1.838 1.086-3.187 1.086-1.328 0-2.383-.351-3.164-1.054-.782-.704-1.18-1.67-1.196-2.899v-7.578h2.344v7.508c0 .745.177 1.289.531 1.633.36.338.855.507 1.485.507 1.317 0 1.987-.692 2.008-2.078v-7.57h2.351zM74.836 146h-2.344l-4.562-7.484V146h-2.344v-11.375h2.344l4.57 7.5v-7.5h2.336V146zm8.61-2.344h-4.11L78.555 146h-2.493l4.235-11.375h2.172L86.727 146h-2.493l-.789-2.344zm-3.477-1.898h2.844l-1.43-4.258-1.414 4.258zm11.414 1.422l2.578-8.555h2.61L92.608 146h-2.445l-3.945-11.375h2.601l2.563 8.555zm12.094.476h-4.11L98.586 146h-2.492l4.234-11.375h2.172L106.758 146h-2.492l-.789-2.344zM100 141.758h2.844l-1.43-4.258-1.414 4.258zM110.312 146h-2.343v-11.375h2.343V146zm4.524-1.883h4.976V146h-7.32v-11.375h2.344v9.492zm12.906-.461h-4.109l-.781 2.344h-2.493l4.235-11.375h2.172L131.023 146h-2.492l-.789-2.344zm-3.476-1.898h2.843l-1.429-4.258-1.414 4.258zm7.82 4.242v-11.375h3.984c1.381 0 2.427.266 3.141.797.713.526 1.07 1.299 1.07 2.32 0 .557-.143 1.05-.429 1.477a2.484 2.484 0 0 1-1.196.929c.584.146 1.042.441 1.375.883.339.443.508.985.508 1.625 0 1.094-.349 1.922-1.047 2.485-.698.562-1.693.849-2.984.859h-4.422zm2.344-4.953v3.07h2.008c.552 0 .981-.13 1.289-.39.312-.266.468-.631.468-1.094 0-1.042-.539-1.571-1.617-1.586h-2.148zm0-1.656h1.734c1.182-.021 1.774-.493 1.774-1.414 0-.516-.152-.886-.454-1.11-.296-.229-.768-.344-1.414-.344h-1.64v2.868zm10.218 4.726h4.977V146h-7.32v-11.375h2.343v9.492zm13.172-3.047h-4.5v3.047h5.282V146h-7.625v-11.375h7.609v1.898h-5.266v2.711h4.5v1.836z" fill="#696969" />
</svg>